<?xml version="1.0" encoding="UTF-8"?>
<svg version="1.1" viewBox="0 0 900 900" width="1280" height="1280" xmlns="http://www.w3.org/2000/svg">
<path transform="translate(437,24)" d="m0 0h24l32 2 32 4 26 5 27 7 25 9 25 11 20 10 22 13 17 12 11 8 14 11 11 9 12 11 8 7 28 28 9 11 11 13 12 17 10 15 12 20 11 21 13 32 9 28 6 24 6 33 3 26 1 16v58l-3 30-5 30-6 25-6 20-9 24-11 24-9 17-14 22-12 17-12 15-9 11-14 15-7 8-18 18-8 7-10 9-11 9-18 14-11 7-17 11-18 10-22 11-28 11-29 9-36 8-26 4-32 3-20 1h-17l-29-2-25-3-27-5-28-7-32-11-26-11-22-11-20-12-15-10-18-13-14-11-13-12-8-7-12-11-24-26-11-14-10-13-15-22-14-24-13-25-10-24-9-25-9-36-5-31-3-31v-53l2-24 4-29 6-28 8-29 10-27 11-24 9-17 14-23 12-17 12-16 9-11 9-10 7-8 27-27h2v-2l8-7 13-11 12-9 18-13 20-13 21-12 21-10 19-8 33-11 24-6 30-5 29-3z" fill="#818282"/>
<path transform="translate(273,283)" d="m0 0h26l22 3 15 4 17 8 12 8 9 7 12 11 10 12 10 16 10 21 7 21 5 25 2 17 1 26-1 1-238 1v10l3 24 4 14 8 16 7 10 5 6 13 10 12 7 14 5 16 3 9 1h15l19-3 15-5 11-6 10-8 7-7 7-11 5-14 1-3h52l-1 9-6 18-8 16-7 11-11 12-10 9-15 10-16 8-19 6-15 3-19 2h-22l-24-3-19-5-15-6-15-8-12-9-10-9-10-11-7-10-8-14-8-18-6-20-5-28-2-22v-13l2-23 4-19 5-16 6-15 9-17 12-16 11-12 10-9 16-11 19-10 19-6 14-3z" fill="#FEFEFE"/>
<path transform="translate(452,284)" d="m0 0h70l8 10 12 18 15 22 11 16 15 22 11 16 7 11 3-3 13-19 24-34 26-36 10-14 7-9h65l-1 4-10 13-24 32-14 19-48 64-10 13-5 7 2 4 12 17 13 18 12 17 26 36 12 17 13 18 10 14 26 36 1 3-21 1h-47l-3-1-26-39-12-17-52-78v-2l-5 5-8 12-29 43-18 27-25 37-8 12-3 1h-61l-3-1 2-5 10-13 7-10 24-34 13-18 12-17 13-18 14-20 12-17 14-19 2-4-8-11-42-57-11-15-14-19-10-14-14-19-15-20z" fill="#FEFEFE"/>
<path transform="translate(269,330)" d="m0 0h25l14 3 14 5 15 9 13 12 10 13 8 17 5 19 1 11-2 1h-179l-1-1v-9l4-17 7-17 7-11 9-10 7-7 14-9 15-6z" fill="#818282"/>
</svg>
