<?xml version="1.0" encoding="UTF-8"?>
<svg version="1.1" viewBox="0 0 900 900" width="1280" height="1280" xmlns="http://www.w3.org/2000/svg">
<path transform="translate(265,38)" d="m0 0h10l9 6 6 10 17 32 18 34 13 23 16 31 12 22 15 28 8 15 1 3h2l13-25 12-22 11-22 8-13 6-5 3-1h10l7 4 6 8 19 37 12 22 8 15 8 16 17 33 10 18 2 2 11-12 86-86 10-5 9 1 6 4 4 5 3 10 9 56 12 74 13 80 10 63 15 92 10 62 7 44v6l-9 6-28 15-43 24-54 30-23 13-24 13-23 13-29 16-25 14-14 8-12 5-8 2h-17l-13-4-23-12-23-13-25-14-23-13-27-15-16-9-23-13-27-15-21-12-29-16-24-14-14-8-2-5 13-81 28-180 12-77 12-76 36-231 3-8 8-7z" fill="#FEC937"/>
<path transform="translate(265,38)" d="m0 0h10l9 6 6 10 17 32 18 34 13 23 16 31 12 22 15 28 8 15 1 3h2l13-25 12-22 11-22 8-13 6-5 3-1h10l7 4 6 8 19 37 12 22 8 15 8 16 17 33 4 7 3 8 1 7-7 8-5 6-4 4h-2v2l-8 7-25 25-5 6-13 13-7 8-23 23-1 2h-2v2l-8 7-15 15-2 3h-2l-2 4h-2l-2 4-10 9-6 7-8 7-7 8h-2v2h-2l-2 4-4 2v2l-6 5-2 3h-2v2h-2v2h-2v2h-2v2h-2l-2 4-12 12h-2l-2 4h-2l-2 4-4 4h-2l-2 4h-2l-2 4-4 4h-2l-2 4-8 8h-2l-2 4h-2l-2 4h-2l-2 4h-2l-2 4h-2l-2 4h-2l-2 4-30 30h-2v2h-2v2h-2v2h-2v2h-2v2h-2l-2 4h-2l-2 4h-2l-2 4h-2v2h-2v2h-2l-2 4h-2l-2 4h-2v2h-2l-2 4-4 2v2h-2v2h-2l-2 4h-2l-2 4-8 7-4 2-2 4h-2v2l-5 5-13 12-2-1v-11l13-82 7-45 19-122 12-77 12-76 36-231 3-8 8-7z" fill="#FA9B19"/>
<path transform="translate(265,38)" d="m0 0h10l9 6 6 10-1 2-6-8v-2l-4-2v-2l-6 1-8-1-7 3-4 2 5-6z" fill="#FEC93A"/>
<path transform="translate(445,154)" d="m0 0h10l7 4 6 8 1 4-4-4-5-7-6-1h-8l-9 2 5-5z" fill="#FEC937"/>
</svg>
