 <svg  version="1.0" xmlns="http://www.w3.org/2000/svg"  width="300.000000pt" height="324.000000pt" viewBox="0 0 300.000000 324.000000"  preserveAspectRatio="xMidYMid meet">  <g transform="translate(0.000000,324.000000) scale(0.050000,-0.050000)" fill="#fb2d1f" stroke="none"> <path d="M1282 5471 c-235 -136 -435 -259 -444 -274 -25 -40 -23 -2891 2 -2938 12 -21 63 -62 115 -92 52 -30 199 -114 325 -188 127 -74 262 -152 300 -174 39 -21 252 -143 474 -271 576 -331 513 -305 612 -249 46 27 300 173 564 325 264 152 606 348 760 436 392 222 350 138 350 695 l0 474 408 234 c225 128 414 248 421 265 15 39 13 918 -2 980 -8 32 -127 111 -453 297 l-442 254 -111 -61 c-61 -34 -264 -150 -451 -258 l-340 -197 -10 -488 -10 -489 -340 -196 c-187 -107 -347 -195 -355 -195 -8 -1 -15 407 -15 905 0 695 -6 914 -25 938 -26 33 -861 517 -889 515 -9 -1 -208 -112 -444 -248z m801 -83 c185 -105 341 -199 347 -207 10 -17 -93 -83 -459 -291 l-238 -136 -102 56 c-362 201 -611 358 -595 374 27 27 671 396 692 396 10 0 170 -86 355 -192z m2338 -364 c73 -41 228 -128 345 -194 245 -138 241 -131 129 -195 -47 -27 -206 -119 -355 -204 l-270 -156 -80 46 c-337 189 -630 364 -630 376 0 12 80 58 558 327 73 41 141 75 152 75 11 0 79 -34 151 -75z m-3367 -17 c53 -30 209 -119 346 -198 l250 -144 5 -956 c4 -660 12 -964 27 -982 13 -15 206 -131 430 -258 l408 -232 0 -408 c0 -231 -8 -409 -18 -409 -16 0 -333 180 -1142 649 -137 79 -288 166 -335 191 l-85 47 0 1377 c0 757 4 1376 9 1376 5 0 53 -24 105 -53z m1466 -853 l0 -884 -155 -85 c-85 -46 -245 -137 -355 -203 -110 -65 -207 -112 -215 -104 -9 8 -13 409 -10 892 l5 877 100 60 c311 186 602 346 615 339 8 -5 15 -406 15 -892z m1262 266 c154 -88 315 -183 359 -210 l79 -51 0 -399 c0 -261 -7 -400 -21 -400 -20 0 -95 41 -499 275 l-210 122 -5 412 c-3 226 -1 411 5 411 7 0 138 -72 292 -160z m1278 -249 l0 -408 -115 -65 c-63 -35 -220 -126 -349 -201 -128 -75 -239 -137 -245 -137 -7 0 -9 186 -6 413 l5 414 60 33 c33 19 186 107 340 196 154 90 287 163 295 163 8 1 15 -183 15 -408z m-1279 -716 c410 -235 387 -210 264 -277 -52 -28 -320 -180 -595 -337 -663 -380 -623 -358 -760 -432 l-120 -66 -330 188 c-181 103 -343 195 -359 205 -22 13 16 44 150 121 682 396 1380 800 1386 801 4 1 168 -90 364 -203z m439 -735 c0 -392 -1 -400 -45 -428 -124 -80 -1508 -872 -1524 -872 -6 0 -9 186 -6 413 l5 413 190 110 c105 61 352 202 550 315 198 112 454 259 570 326 284 166 260 191 260 -277z"/> </g> </svg> 