<?xml version="1.0" encoding="UTF-8"?>
<svg version="1.1" viewBox="0 0 900 900" width="1280" height="1280" xmlns="http://www.w3.org/2000/svg">
<path transform="translate(449,141)" d="m0 0 4 2 7 10 16 21 10 13 26 32 13 18 10 15 13 21 14 27 10 21 11 31 7 28 4 24 2 20v29l-2 20-4 24-7 26-8 22-10 23-13 23-14 21-12 16-14 17-8 8-7 8-15 14-10 8-4 4-4 39-3 27-2 6h-18l-2-5-3-23-4-43-2-4-6-4-14-12-16-16-7-8-11-13-15-20-10-15-12-21-8-16-7-16-9-25-6-25-5-33v-45l5-32 7-28 10-29 9-21 8-16 7-13 12-20 8-12 11-16 10-13 14-17 9-11 13-17 21-28zm1 223-1 3-2 41-4 96-4 86-3 49v29l12 11 5-1 10-10 1-2v-23l-3-49-3-69-2-44-3-65-2-52z" fill="#01E86C"/>
<path transform="translate(449,141)" d="m0 0 4 2 7 10 16 21 10 13 26 32 13 18 10 15 13 21 14 27 10 21-1 3-6-9-3-5-3-3-6-14-3-6-4-6-4-8v-2h-2v-3h-2l-2-6h-2l-7-12v-3h-2l-6-9v-2h-2l-6-9-7-8v-3l-3-1-4-7-6-7v-3l-4-2-12-15-3-5-5-5-12-14-6-2-1 3-5 2-1 2-2-3-6 3 2-4 12-16z" fill="#00D66A"/>
<path transform="translate(444,452)" d="m0 0h1v31l-5 107-1 16h-2l-1-5v-33l2-12 1-48 2-41 2-14z" fill="#00D66A"/>
<path transform="translate(464,648)" d="m0 0 2 3 2 10-1 4-6 7 1 7-4 13-2 2h-3l-1 3-6-1-1-5-1-11-4-2-3-3v-3l3-1 8 7 5-1 9-9 1-2z" fill="#00D66A"/>
<path transform="translate(589,385)" d="m0 0h2l4 26 1 13v29l-2 20-2-2-2-11 1-21 1-6v-16-3l-1-6v-4l-1-6z" fill="#00D66A"/>
<path transform="translate(455,462)" d="m0 0 2 1 2 7 1 64 1 12-1 5h-1l-1-6-2-37-1-27z" fill="#00D76A"/>
<path transform="translate(447,392)" d="m0 0h1v16l-2 43-3-2v-10l-1-11 1-16 1-4z" fill="#00D76A"/>
<path transform="translate(305,409)" d="m0 0h1l1 12-1 46h-1l-1-7v-45z" fill="#00D66A"/>
<path transform="translate(452,394)" d="m0 0 3 4v29l-2 1-1-12z" fill="#00D66A"/>
<path transform="translate(460,566)" d="m0 0 2 2 1 5v24l-1 8h-1l-1-11z" fill="#00D66A"/>
<path transform="translate(465,686)" d="m0 0h2v13l-1 7-2-3v-2h-2l1-12z" fill="#00D86A"/>
<path transform="translate(435,641)" d="m0 0h1v27l-3-3-1-9 2-4z" fill="#00D66A"/>
<path transform="translate(457,753)" d="m0 0h3v5l-1 1h-18l4-2h8z" fill="#00D66A"/>
<path transform="translate(454,436)" d="m0 0 2 3 1 4v13h-3z" fill="#00D86A"/>
<path transform="translate(396,652)" d="m0 0 4 2v2h2v2h2l7 8 4 5-4-2-15-15z" fill="#00D66A"/>
<path transform="translate(436,721)" d="m0 0 2 2v14l3 1v3h-2v5h-1l-2-15z" fill="#00D76A"/>
<path transform="translate(428,682)" d="m0 0 5 1 2 5-1 10h-1l-2-13z" fill="#00D66A"/>
</svg>
