<?xml version="1.0" encoding="UTF-8"?>
<svg version="1.1" viewBox="0 0 900 900" width="1280" height="1280" xmlns="http://www.w3.org/2000/svg">
<path transform="translate(432,23)" d="m0 0h22l25 3 19 5 20 7 21 10 20 13 13 10 10 9 2 1v2l4 2 10 10 18 22 14 21 12 21 11 25 9 25 8 29 6 33 4 30v3l-6-1-30-10-15-4-6-2-1-1-2-17-5-22-6-22-8-21-10-23-12-21-12-17-9-11-11-12-12-11-14-10-16-9-18-7-19-4-9-1h-21l-21 3-21 5-24 8-21 10-17 11-10 8-10 9-9 10-14 19-13 21-10 19-9 21-11 33-4 16-4 24-3 30v60l4 34 6 32 8 29 9 26 12 28 11 22 9 15v2l5-1h11l16 3 10 4 11 8 3 2v2l4 2 8 11 7 16 1 6v22l-3 11-6 12-9 11-8 7-16 8-14 3h-20l-18-6-10-7-9-8-7-10-6-13-3-14v-11l2-13 6-12-8-15-10-19-9-19-14-34-12-36-9-37-6-35-3-31v-52l2-21 4-27 6-29 7-25 7-21 8-20 12-25 12-20 10-14 13-16 7-8 19-19 11-9 15-11 18-11 15-8 25-10 17-5 27-5z" fill="#855EBE"/>
<path transform="translate(381,285)" d="m0 0h16l15 4 12 6 11 9 9 12 2 3h28l35 2 42 5 31 6 37 10 31 11 24 10 26 13 24 14 24 16 13 10 17 14 12 11 8 7 14 14 7 8 12 14 12 15 9 13 10 16 14 27 9 23 7 24 4 17 3 23 1 4v37l-5 30-6 22-9 21-9 16-12 16-15 16-10 10-14 11-10 7-11 7-23 12-18 8-21 7-25 6-26 4-37 1-33-3-27-5-27-7-26-9-19-8-6-2 1-3 19-14 13-11 10-8 7-6 5 1 23 8 24 7 29 5 28 2h14l20-2 20-4 21-7 17-8 16-10 16-13 11-11 11-14 11-17 10-21 6-19 4-24v-14l-2-22-4-19-5-16-8-20-8-16-10-19-10-15-16-21-9-10-7-8-9-9-8-7-12-10-19-14-17-11-15-9-22-12-27-13-35-13-32-9-18-4-30-5-22-2-15-1h-39l-11 16-8 8-11 7-12 5-14 2-17-1-12-4-12-7-9-8-9-13-5-12-2-8-1-12 2-14 4-12 6-10 9-10 8-7 12-6z" fill="#855EBE"/>
<path transform="translate(133,420)" d="m0 0 2 2 1 10 11 42 1 4-10 9-8 7-10 9-11 11-9 11-10 13-10 15-12 22-10 25-5 19-3 19v30l4 22 6 20 12 25 9 15 8 10 9 10 7 7 15 11 14 8 17 8 18 6 25 5 21 2h42l26-3 32-7 23-7 27-11 16-8 15-8 24-14 22-14 19-14 10-8 11-9 13-12h2l1-3h2l2-4 5-5h2l1-3h2l2-4 10-11 13-17 11-15 12-20 9-16 1-4-8-11-6-12-4-15 1-16 3-12 7-14 9-10 8-7 15-8 14-3h15l16 4 13 7 11 9 8 11 5 10 4 14v15l-3 16-7 14-6 8h-2v2l-10 8-14 7-16 4-10 19-10 18-9 14-14 20-11 14-8 10-9 10-11 12-18 18-8 7-14 12-11 8-12 9-17 11-15 9-27 14-21 10-27 10-28 9-28 7-36 7-25 3h-39l-27-3-25-5-29-9-21-9-17-9-18-12-14-11-16-16-10-13-11-18-11-23-7-21-5-22-3-24-1-3v-39l4-25 6-26 7-21 11-25 12-21 13-19 13-16 12-14 17-17h2v-2l11-9 13-11z" fill="#855EBE"/>
</svg>
