<?xml version="1.0" encoding="UTF-8"?>
<svg version="1.1" viewBox="0 0 900 900" width="1280" height="1280" xmlns="http://www.w3.org/2000/svg">
<path transform="translate(438,252)" d="m0 0h24l26 3 25 6 20 8 15 8 12 8 14 11 12 11 31 31 8 7 11 9 17 10 15 5 10 2h28l17-4 19-9 11-8 10-9 5-5h2l2-4 10-12 1 3-10 29-12 25-8 12-10 13-16 16-16 11-19 10-18 6-24 5-16 2h-37l-27-4-24-7-16-7-11-6-19-13-11-10-11-9-36-36-14-11-14-8-10-4-20-4h-21l-17 4-15 6-15 9-15 13-10 11-5 7-2-1 6-19 8-20 8-16 8-12 8-10 9-10 7-7 18-13 15-8 17-6 19-5z" fill="#12B7B7"/>
<path transform="translate(273,452)" d="m0 0h20l21 2 25 5 21 7 25 13 15 11 11 9 5 4v2l4 2 38 38 14 11 19 10 14 4 8 1h25l14-3 14-5 17-10 13-11 11-11 7-10h2l-2 9-10 28-12 23-13 18-13 14-17 13-16 9-14 6-19 6-24 4-10 1h-34l-30-4-20-6-18-8-15-8-14-10-10-8-7-7-8-7-32-32-14-11-14-9-16-6-15-3h-23l-21 5-16 8-13 9-10 9-5 4-7 9-5 6h-2l3-10 8-23 10-21 9-14 8-10 12-13 12-10 14-9 21-10 21-6 25-4z" fill="#12B6B7"/>
<path transform="translate(273,452)" d="m0 0h20l21 2 12 2-1 3h-8l4 2-1 3-5-2-6-1v2l7 4-1 4-10 5-4 1h-13v-2l-9 2-13 5-3 4-2 10-2 2-1 8-7 10-1 4 6 1 4 4h3v2l2 1 1 5h2l4 7 5 7-3 1-10-10-13-9-12-5-2-4-16-2 4 7 6 3 8 2 6 1v2l6 1 1 3 4 1 2 5 5 2v2l3 1v3l-5-2-13-8-18-6-11-2h-23l-21 5-16 8-13 9-10 9-5 4-7 9-5 6h-2l3-10 8-23 10-21 9-14 8-10 12-13 12-10 14-9 21-10 21-6 25-4z" fill="#0DA2B5"/>
<path transform="translate(574,298)" d="m0 0 5 2 38 38 8 7 11 9 17 10 15 5 10 2h28l17-4 19-9 11-8 10-9 5-5h2l2-4 10-12 1 3-10 29-12 25-8 12-4 1-2-5 3-5v-3l-3-1-2 1-1-3-4 1v-2l-4 1-1-3-1-1-2-1-2 5 2 2-4 2-2-3-3 2h-4l-2-3-3-1-1 7-4 3 2 2h4l3 1v2l-5 2-1 2-2-1-2 4-1 1-7-1v-2h-4v2l-2 2h-3l-6 1-2-3-8-4-10-4-1 2-8-2-2-1v-2l-5-1-8-10-2-4 1-1-11-7-10-13-2-1v-2h-2v-2h-2v-2h-2l-2-4-7-6-12-12-3-2v-2l-4-2v-2l-3 1h-3l-1-3-2-2 3-1-5-5 1-2z" fill="#03BAAD"/>
<path transform="translate(402,257)" d="m0 0h7l-3 2v3h-3v2l-3 3-16 8h-3v2l-11 6h-2v2l-9 4-4 3-6 2-2 1v2l-2 2-4 1-5 9-5 4h-2l-1 3-1 4-3 2 1 3 10-7h6l7 2 9 1h16l6 2 6 4v2l17 1 5 3 1 2 5 1v3l-9-2-20-4h-21l-17 4-15 6-15 9-15 13-10 11-5 7-2-1 6-19 8-20 8-16 8-12 8-10 9-10 7-7 18-13 15-8 17-6z" fill="#0DA2B4"/>
<path transform="translate(456,556)" d="m0 0 4 1 6 3 5 1 3-1 2-2 13 7 2 4 6 2 2 8 5 2 12 3 3 2 6 1 4 2 1-3 2 2 6 2v2h-5l-1 1 3 2-7 2h-11l-4-1-4 1-2 1-2-5-13-5v3l-7 1v-2l-5 2v4l2 2v5h8v3l5 2h5l5 3 6 2 2 9-6 3h-4v2l-21 7-9 2-1 1-15 1-6 1-6-1 1-3-5-1 3-4 6-2 5-2-2-4 5 1 1-4 2-6h-2l-2-4 1-3-1-5 1-6-5-3 1-3 3 1 1-4h3v-2h2l-1-3 2-4-2-7-1-3h2l2 3v-4h-2v-2l-5-2z" fill="#02BAAD"/>
<path transform="translate(438,252)" d="m0 0h24l11 1 1 2-12 2-9 1v2l-4 1 9 1 10 4v2l-7 4-20 5v-2l-5 1-5 4-4-1-4 10h-2l-4-7-2-1v-3l-5 2-9 3-7 2-5 5-4 7-1 4 3 1 1 8h11l3 1 2-3h2l1-4 4-1 3-5h4 6l-3 5h-2l-2-2-1 1 7 5 2-6 1-2 4 1-2 6-1 2-4 1 1 1v7l-1-2h-10l-2 2-1 2 7 5v2l4 1 3 7h-3l-1-3-5-2-3-1v-2h-3v-2h-6l-5-2-12-1v-2l-4-2-4-3h-17l-13 1-3-4 1-3 8-6-2-2 16-11 5-1 3-1 11-7 12-5 3-1v-3l6-4 7-3 10-5h-12l-1-2 1-2z" fill="#0DA1B5"/>
<path transform="translate(591,357)" d="m0 0 10 1 1 8-2 7 3 1-3 9-3 4v3l-3 7 2 8-1 3h3v3h2v-7l-1-4 5-1 2 1-1 6-2 6 3 1v2l2 1v4l3-1-2-4-2-2v-3l5-2v3l7 1v5l3 1 1 3-7 1-4 2 3 2 6-2 3 1 2-2 9 1h6l-1 4 4-2 2 4-11 2-7 3-10 1v1l-22 3-8-1h-8l-4-2-17-2-3 1v-3l-5-1v-2l-4-2-4-3v-2l5 1 4-5 2 2 9 2 5-1 3-1v3l3-1v-3l-2-2 1-9 3-5 2-8 3-1 1-3-3 1 3-12 4-3-1-6-1-2 3-5v-3h2l-1-3z" fill="#02BAAD"/>
<path transform="translate(291,457)" d="m0 0h11l-2 3-11 3-1 1 2 1-2 4-17 4h-4v2l2 1-9 5-3 1-1 5-4 5-3 3 1 5h-2l-1 3-2 1-2-1-1-7-3 1-3 3-2 4 1 5 2 5-1 2-9 1-9-3-2-2h-8l-7-1-10-2-2-6 8-4 4-3 1-3h3l2-5 10-4h11l6 3v-2l7-1 3 2 9-1-1-10 7-12 1-3 7-2 10 2z" fill="#12B6B7"/>
<path transform="translate(614,521)" d="m0 0h2l-2 9-10 28-12 23-13 18-4 4-5-2 1-6 3-4v-2l-4-1 5-4 1-4 1-2h-2l1-3h-5l-1-4-4 1-2-5v-3l16-9 14-11 13-13z" fill="#04BAAD"/>
<path transform="translate(710,421)" d="m0 0 2 1 1 4h-2v3l-19 10-18 6-24 5-10 1-3-1v-2l10-3-1-1v-4l5-5 2-1 13-1 5 1 6-2 4 1 4-1v-2h7l5-3h2v-2z" fill="#03BBAD"/>
<path transform="translate(567,602)" d="m0 0h3l2 5-11 10-15 11-19 10-18 6-3-1-1-4-4 1-1-3 1-2h6l6-3h8v-2l8-3 5-2 7-3 5-1v-2l5-3h2v-2l4-1 1-3 8-7z" fill="#03BAAE"/>
<path transform="translate(565,592)" d="m0 0 3 1-5 5-5 4-4 3-1 3-17 11-6 2-13 8h-5l2-3 5-2 8-7h2l2-5 3-2 1-3 5-1 4-7 12-2z" fill="#02BBAD"/>
<path transform="translate(381,289)" d="m0 0 1 2h-2l-2 5-7 1-3 3-1 3 9-3 2 1 1 4-2 4-16 1-7-3 5-5 5-6 12-5z" fill="#13B7B8"/>
<path transform="translate(249,459)" d="m0 0h7v2h2l-2 5-6 5-6 2h-6l1-3-12 1 2-1 1-4h3v-2l3-1 1-2 11-1z" fill="#12B6B7"/>
<path transform="translate(687,408)" d="m0 0 1 4-6 8h-2l-2 5-5 4-9 2v-4h2l-1-4-5 1-3 1v-4l9-3 7-2 7-3 1-2h5z" fill="#02BBAD"/>
<path transform="translate(438,252)" d="m0 0h24l3 2-19 1-12 2-5 1-16 1-1-2 1-2z" fill="#0CA4B4"/>
<path transform="translate(438,252)" d="m0 0h24l3 2-19 1-12 2h-4l1-2 7-2z" fill="#10B2B6"/>
<path transform="translate(509,571)" d="m0 0 9 1 2 5 3 1-1 2-8-1-4-1z" fill="#02BBAD"/>
<path transform="translate(556,567)" d="m0 0 2 1-1 6-5 2h-3v-7z" fill="#08BBAF"/>
<path transform="translate(425,635)" d="m0 0 3 1v2l-5 1v2l-5 1-5-2 2-2 10-1z" fill="#02BBAD"/>
<path transform="translate(449,646)" d="m0 0h5l1 2-1 2h2v2h-13v-1l6-2z" fill="#02BAAD"/>
<path transform="translate(202,503)" d="m0 0 4 4-2 2-10-1v-3z" fill="#0DA1B5"/>
<path transform="translate(650,364)" d="m0 0 6 1 11 4v2l-3 1-8-4-6-2z" fill="#10B7B6"/>
<path transform="translate(668,370)" d="m0 0 21 2v1l-9 2-12-3z" fill="#0EB6B4"/>
<path transform="translate(782,320)" d="m0 0 1 3-3 9h-2l-1-2-2-1z" fill="#1EBEB8"/>
<path transform="translate(631,444)" d="m0 0 3 1-1 4 2 2-1 1-9-1 3-2v-2h3z" fill="#02BBAD"/>
<path transform="translate(631,355)" d="m0 0 8 1 9 5-4 1-12-5z" fill="#17B9B8"/>
<path transform="translate(439,530)" d="m0 0 3 1 5 5-1 4h-2v-2h-2v-2l-3-1 1-3-2-1z" fill="#03BAAD"/>
<path transform="translate(239,515)" d="m0 0 5 1 1 4h-6l-2-1v-3z" fill="#13B7B8"/>
<path transform="translate(124,573)" d="m0 0 3 1-7 7-1 2h-2l2-7h3z" fill="#13BAB5"/>
</svg>
